<svg xmlns="http://www.w3.org/2000/svg" xml:space="preserve" viewBox="0 0 64 64">
  <path fill="#fff" stroke="#000" stroke-width="4.925" d="M7.385 2.46a3.697 3.697 0 0 0-3.692 3.694v35.692a3.697 3.697 0 0 0 3.692 3.693h30.77c.382 0 .741.178.974.48l11.564 15.036a1.246 1.246 0 0 0 2.23-.76V46.77c0-.681.55-1.23 1.231-1.23h2.461a3.697 3.697 0 0 0 3.692-3.694V6.154a3.697 3.697 0 0 0-3.692-3.693z" paint-order="stroke fill markers"/>
  <path fill="#1864ab" d="M32 8c-8.823 0-16 7.177-16 16s7.177 16 16 16 16-7.177 16-16S40.823 8 32 8zm0 18.087a2.07 2.07 0 0 1-.895-.209l-4.178 4.179a.694.694 0 0 1-.984 0 .695.695 0 0 1 0-.984l4.179-4.178a2.065 2.065 0 0 1-.209-.895 2.08 2.08 0 0 1 1.391-1.959v-9.867a.695.695 0 1 1 1.392 0v9.867A2.08 2.08 0 0 1 34.087 24 2.087 2.087 0 0 1 32 26.087z"/>
</svg>
